<svg width="46" height="52" viewBox="0 0 46 52" fill="none" xmlns="http://www.w3.org/2000/svg">
<path d="M41.2788 19.0239L45.6174 17.3767L5.041 0.207149C4.33864 -0.150923 3.35179 0.0639204 3.35179 0.0639204L0.657959 1.54097L41.2788 19.0239Z" fill="url(#paint0_linear_206_5)"/>
<path d="M12.4201 14.772V48.0996C12.4201 50.2211 14.5094 51.6534 16.3675 50.7941L18.3234 49.8183C18.3234 49.8183 18.599 40.3562 18.599 38.2347V20.2057C18.599 18.0752 20.6883 16.6519 22.5553 17.5112L41.6522 26.1587L41.2966 19.0062L1.30691 1.39797C1.30691 1.39797 4.48959e-06 1.0578 4.48959e-06 3.65382C4.48959e-06 6.06186 -0.00888603 7.0197 0.764591 7.51205L10.7398 12.0775C11.7533 12.543 12.4201 13.5993 12.4201 14.772Z" fill="url(#paint1_linear_206_5)"/>
<path d="M24.9379 24.699V30.7862C24.9379 31.5292 25.6225 32.0305 26.2359 31.7351L32.4504 28.7094C33.1883 28.3513 33.1883 27.1786 32.4504 26.8116L26.2359 23.7501C25.6225 23.4457 24.9379 23.947 24.9379 24.699Z" fill="url(#paint2_linear_206_5)"/>
<path d="M40.1941 31.2787L38.5583 30.5895C37.1091 29.9986 36.9135 29.9449 35.5622 30.5895L18.8124 38.2791V42.6207L41.0387 31.8696C40.852 31.61 40.5764 31.4846 40.1941 31.2787Z" fill="#455FCE"/>
<path d="M41.0388 31.8696L24.3335 39.9262C23.2399 40.4186 21.9775 39.2906 21.9775 38.0463V19.1938V18.9969C21.9775 18.039 22.582 17.5467 23.4177 17.9227L20.7328 16.6605C19.6037 16.1323 18.3146 16.9648 18.3146 18.2181V49.818L24.0312 46.9623C22.9821 47.4368 35.1177 41.8598 39.6252 39.783C40.6298 39.3264 41.2699 38.288 41.2699 37.1422V34.5641V33.0244C41.2877 32.4335 41.1988 32.0934 41.0388 31.8696Z" fill="url(#paint3_linear_206_5)"/>
<path d="M45.4663 24.8426L42.4257 26.1764C41.8301 26.436 41.1633 25.9974 41.1633 25.3439V19.5789C41.1633 19.2029 41.3944 18.8717 41.7412 18.7374L45.244 17.3678C45.6085 17.2246 45.9997 17.5021 45.9997 17.896V24.019C46.0086 24.3771 45.7952 24.6994 45.4663 24.8426Z" fill="url(#paint4_linear_206_5)"/>
<defs>
<linearGradient id="paint0_linear_206_5" x1="22.7537" y1="10.3442" x2="25.5018" y2="4.04603" gradientUnits="userSpaceOnUse">
<stop stop-color="#A9C9F9"/>
<stop offset="0.5788" stop-color="#758EE3"/>
<stop offset="1" stop-color="#4660CF"/>
</linearGradient>
<linearGradient id="paint1_linear_206_5" x1="10.6004" y1="42.7361" x2="21.6333" y2="12.6308" gradientUnits="userSpaceOnUse">
<stop stop-color="#455FCE"/>
<stop offset="0.260417" stop-color="#4D68D1"/>
<stop offset="0.5788" stop-color="#6888DB"/>
<stop offset="1" stop-color="#A9C9F9"/>
</linearGradient>
<linearGradient id="paint2_linear_206_5" x1="24.86" y1="27.7401" x2="33.1045" y2="27.7401" gradientUnits="userSpaceOnUse">
<stop stop-color="#4660CF"/>
<stop offset="1" stop-color="#AAC5FA"/>
</linearGradient>
<linearGradient id="paint3_linear_206_5" x1="29.8946" y1="19.2051" x2="29.4827" y2="56.7765" gradientUnits="userSpaceOnUse">
<stop stop-color="#6888DB"/>
<stop offset="0.604167" stop-color="#4660CF"/>
</linearGradient>
<linearGradient id="paint4_linear_206_5" x1="41.2218" y1="21.4834" x2="45.289" y2="21.9794" gradientUnits="userSpaceOnUse">
<stop stop-color="#A9C4F9"/>
<stop offset="0.7376" stop-color="#94ADEF"/>
<stop offset="1" stop-color="#8BA6EB"/>
</linearGradient>
</defs>
</svg>
