<svg width="71" height="71" viewBox="0 0 71 71" fill="none" xmlns="http://www.w3.org/2000/svg">
<path d="M54.5163 5.71106C38.191 -4.9164 16.3385 -0.285582 5.71105 16.0611C-4.91641 32.3864 -0.285571 54.2388 16.0611 64.8663C32.3864 75.4937 54.2388 70.863 64.8663 54.5163C75.4724 38.191 70.8416 16.3385 54.5163 5.71106Z" fill="url(#paint0_radial_283_2213)"/>
<path d="M42.4163 69.8386C61.4945 65.912 73.7865 47.2392 69.8386 28.161C65.9119 9.08277 47.2392 -3.20921 28.161 0.738739C9.08279 4.66535 -3.20921 23.3381 0.738739 42.4163C4.66535 61.4945 23.3168 73.7652 42.4163 69.8386Z" fill="url(#paint1_linear_283_2213)"/>
<defs>
<radialGradient id="paint0_radial_283_2213" cx="0" cy="0" r="1" gradientUnits="userSpaceOnUse" gradientTransform="translate(51.6682 19.6777) rotate(-56.9615) scale(59.6306 59.6306)">
<stop stop-color="#C0BFF6"/>
<stop offset="1" stop-color="#393091"/>
</radialGradient>
<linearGradient id="paint1_linear_283_2213" x1="68.5115" y1="23.4185" x2="2.05352" y2="47.1537" gradientUnits="userSpaceOnUse">
<stop stop-color="#2FD3C7"/>
<stop offset="0.6834" stop-color="#3660A1"/>
<stop offset="1" stop-color="#393091"/>
</linearGradient>
</defs>
</svg>
