<svg width="180" height="230" viewBox="0 0 180 230" fill="none" xmlns="http://www.w3.org/2000/svg">
<g opacity="0.5">
<path d="M85.4463 200.71C129.706 175.165 165.728 112.788 165.728 61.6779C165.728 22.6465 144.346 -0.102243 112.548 5.10479C109.305 5.63829 105.933 6.47057 102.561 7.55892C100.747 8.15645 98.9761 10.5039 98.5919 12.8086C98.2078 15.1134 99.3389 16.5218 101.153 15.9243C104.247 14.9213 107.32 14.1531 110.308 13.6622C139.459 8.90336 159.049 29.7315 159.049 65.5191C159.049 112.361 126.036 169.532 85.4677 192.963C44.8998 216.395 11.8864 197.338 11.8864 150.475C11.8864 148.341 10.3926 147.487 8.53595 148.554C6.67935 149.621 5.18555 152.225 5.18555 154.337C5.18555 205.469 41.1866 226.254 85.4463 200.71Z" fill="#42E8E0"/>
<g opacity="0.3">
<path d="M85.4462 216.864C137.517 186.796 179.877 113.428 179.877 53.2911C179.877 30.7131 173.944 12.4458 162.741 0.516583C161.674 -0.614452 159.582 0.175138 158.089 2.26649C156.573 4.35783 156.211 6.9827 157.278 8.11373C167.692 19.1893 173.197 36.1549 173.197 57.1324C173.197 113.001 133.825 181.183 85.4462 209.118C61.097 223.181 37.644 224.888 21.084 213.834C19.8249 213.002 17.7122 214.133 16.3677 216.352C15.0233 218.593 14.938 221.068 16.197 221.922C34.0162 233.851 59.2617 231.995 85.4462 216.864Z" fill="#42E8E0"/>
</g>
<path d="M42.147 63.4706C42.7872 63.0865 43.4487 62.4889 44.0249 61.7207C48.0582 56.2149 52.3903 50.9865 56.8718 46.2277C60.9051 41.9383 65.1091 37.969 69.3558 34.4051C71.1484 32.89 72.3008 30.1798 71.8953 28.3232C71.4899 26.4666 69.6973 26.1891 67.9047 27.7043C63.2525 31.5882 58.6644 35.9203 54.2683 40.6152C49.3813 45.8222 44.6651 51.52 40.2477 57.538C38.7325 59.6293 38.3271 62.2542 39.3727 63.4066C40.0129 64.1108 41.08 64.0895 42.147 63.4706Z" fill="#42E8E0"/>
<path d="M22.7271 87.9472C22.7271 90.3374 24.4129 91.319 26.4829 90.1239C28.5529 88.9289 30.2388 86.0053 30.2388 83.6152C30.2388 81.2251 28.5529 80.2434 26.4829 81.4385C24.4129 82.6335 22.7271 85.5571 22.7271 87.9472Z" fill="#42E8E0"/>
<path d="M14.874 105.575C14.874 107.965 16.5599 108.946 18.6299 107.751C20.6999 106.556 22.3858 103.633 22.3858 101.243C22.3858 98.8525 20.6999 97.8708 18.6299 99.0659C16.5599 100.261 14.874 103.163 14.874 105.575Z" fill="#42E8E0"/>
<path d="M119.228 53.8673L134.38 45.1178V41.2979L119.228 50.0474V53.8673Z" fill="#42E8E0"/>
<path d="M106.296 61.3149L113.872 56.9615V53.1416L106.296 57.5164V61.3149Z" fill="#42E8E0"/>
<path d="M114.768 65.3909L121.213 61.6563V57.8364L114.768 61.571V65.3909Z" fill="#42E8E0"/>
<path d="M103.949 71.6221L111.525 67.2473V63.4487L103.949 67.8022V71.6221Z" fill="#42E8E0"/>
<path d="M91.4434 87.7767L121.213 70.5977V66.7778L91.4434 83.9781V87.7767Z" fill="#42E8E0"/>
<path d="M114.768 83.2742L121.213 79.5397V75.7197L114.768 79.4543V83.2742Z" fill="#42E8E0"/>
<path d="M103.949 89.5054L111.525 85.1306V81.332L103.949 85.6854V89.5054Z" fill="#42E8E0"/>
<path d="M104.845 97.9353L121.213 88.4815V84.6616L104.845 94.1154V97.9353Z" fill="#42E8E0"/>
<path d="M93.8975 104.251L101.473 99.8766V96.0566L93.8975 100.431V104.251Z" fill="#42E8E0"/>
<path d="M82.8857 110.611L90.4615 106.236V102.416L82.8857 106.791V110.611Z" fill="#42E8E0"/>
<path d="M65.1304 120.876L79.4497 112.596V108.776L65.1304 117.056V120.876Z" fill="#42E8E0"/>
<path d="M73.7095 133.787L81.2853 129.412V125.613L73.7095 129.967V133.787Z" fill="#42E8E0"/>
<path d="M55.9541 144.051L70.2734 135.771V131.951L55.9541 140.231V144.051Z" fill="#42E8E0"/>
<path d="M113.637 110.739L121.213 106.364V102.544L113.637 106.919V110.739Z" fill="#42E8E0"/>
<path d="M102.625 117.098L110.201 112.724V108.904L102.625 113.279V117.098Z" fill="#42E8E0"/>
<path d="M84.8701 127.363L99.1895 119.083V115.263L84.8701 123.543V127.363Z" fill="#42E8E0"/>
<path d="M62.9536 131.055L70.5294 126.68V122.86L62.9536 127.235V131.055Z" fill="#42E8E0"/>
<path d="M51.9424 137.414L59.5182 133.04V129.22L51.9424 133.594V137.414Z" fill="#42E8E0"/>
<path d="M34.187 147.679L48.5064 139.399V135.579L34.187 143.859V147.679Z" fill="#42E8E0"/>
<path d="M113.637 128.622L121.213 124.248V120.428L113.637 124.802V128.622Z" fill="#42E8E0"/>
<path d="M95.8818 138.887L110.201 130.607V126.787L95.8818 135.067V138.887Z" fill="#42E8E0"/>
<path d="M68.8223 100.859L76.3767 96.484V92.6641L68.8223 97.0388V100.859Z" fill="#42E8E0"/>
<path d="M80.2607 94.243L87.8365 89.8682V86.0483L80.2607 90.4231V94.243Z" fill="#42E8E0"/>
<path d="M51.0459 111.102L65.3866 102.843V99.0234L51.0459 107.303V111.102Z" fill="#42E8E0"/>
<path d="M114.384 101.371L121.213 97.4229V93.603L114.384 97.551V101.371Z" fill="#42E8E0"/>
<path d="M94.1108 113.065L110.735 103.484V99.6636L94.1108 109.245V113.065Z" fill="#42E8E0"/>
<path d="M73.8589 124.76L90.4616 115.178V111.358L73.8589 120.961V124.76Z" fill="#42E8E0"/>
<path d="M40.5254 117.184L47.3543 113.236V109.438L40.5254 113.364V117.184Z" fill="#42E8E0"/>
<path d="M20.252 128.878L36.876 119.296V115.477L20.252 125.08V128.878Z" fill="#42E8E0"/>
<path d="M0 140.573L16.6027 130.991V127.171L0 136.774V140.573Z" fill="#42E8E0"/>
<path d="M104.461 124.973L121.064 115.391V111.571L104.461 121.174V124.973Z" fill="#42E8E0"/>
<path d="M95.7109 130.031L100.811 127.086V123.287L95.7109 126.232V130.031Z" fill="#42E8E0"/>
<path d="M86.9189 135.11L92.0193 132.165V128.345L86.9189 131.29V135.11Z" fill="#42E8E0"/>
<path d="M70.7002 144.478L83.2483 137.222V133.402L70.7002 140.658V144.478Z" fill="#42E8E0"/>
<path d="M67.3071 146.441L79.8552 139.186V135.387L67.3071 142.622V146.441Z" fill="#42E8E0"/>
<path d="M56.6582 125.762L61.7585 122.817V118.998L56.6582 121.943V125.762Z" fill="#42E8E0"/>
<path d="M40.4399 135.131L52.988 127.876V124.056L40.4399 131.311V135.131Z" fill="#42E8E0"/>
<path d="M37.0254 137.094L49.5735 129.839V126.04L37.0254 133.274V137.094Z" fill="#42E8E0"/>
<path d="M129.13 128.622L134.23 125.677V121.857L129.13 124.802V128.622Z" fill="#42E8E0"/>
<path d="M112.912 137.99L125.46 130.735V126.936L112.912 134.17V137.99Z" fill="#42E8E0"/>
<path d="M96.3301 147.551L108.878 140.317V136.497L96.3301 143.753V147.551Z" fill="#42E8E0"/>
</g>
</svg>
