<svg width="175" height="230" viewBox="0 0 175 230" fill="none" xmlns="http://www.w3.org/2000/svg">
<g opacity="0.5">
<path d="M80.4463 200.71C124.706 175.165 160.728 112.788 160.728 61.6779C160.728 22.6465 139.346 -0.102243 107.548 5.10479C104.305 5.63829 100.933 6.47057 97.5612 7.55892C95.7473 8.15645 93.9761 10.5039 93.5919 12.8086C93.2078 15.1134 94.3389 16.5218 96.1528 15.9243C99.2471 14.9213 102.32 14.1531 105.308 13.6622C134.459 8.90336 154.049 29.7315 154.049 65.5191C154.049 112.361 121.036 169.532 80.4677 192.963C39.8998 216.395 6.88639 197.338 6.88639 150.475C6.88639 148.341 5.39256 147.487 3.53595 148.554C1.67935 149.621 0.185547 152.225 0.185547 154.337C0.185547 205.469 36.1866 226.254 80.4463 200.71Z" fill="#42E8E0"/>
<g opacity="0.3">
<path d="M80.4462 216.864C132.517 186.796 174.877 113.428 174.877 53.2911C174.877 30.7131 168.944 12.4458 157.741 0.516583C156.674 -0.614452 154.582 0.175138 153.089 2.26649C151.573 4.35783 151.211 6.9827 152.278 8.11373C162.692 19.1893 168.197 36.1549 168.197 57.1324C168.197 113.001 128.825 181.183 80.4462 209.118C56.097 223.181 32.644 224.888 16.084 213.834C14.8249 213.002 12.7122 214.133 11.3677 216.352C10.0233 218.593 9.93796 221.068 11.197 221.922C29.0162 233.851 54.2617 231.995 80.4462 216.864Z" fill="#42E8E0"/>
</g>
<path d="M37.147 63.4706C37.7872 63.0865 38.4487 62.4889 39.0249 61.7207C43.0582 56.2149 47.3903 50.9865 51.8718 46.2277C55.9051 41.9383 60.1091 37.969 64.3558 34.4051C66.1484 32.89 67.3008 30.1798 66.8953 28.3232C66.4899 26.4666 64.6973 26.1891 62.9047 27.7043C58.2525 31.5882 53.6644 35.9203 49.2683 40.6152C44.3813 45.8222 39.6651 51.52 35.2477 57.538C33.7325 59.6293 33.3271 62.2542 34.3727 63.4066C35.0129 64.1108 36.08 64.0895 37.147 63.4706Z" fill="#42E8E0"/>
<path d="M17.7271 87.9472C17.7271 90.3374 19.4129 91.319 21.4829 90.1239C23.5529 88.9289 25.2388 86.0053 25.2388 83.6152C25.2388 81.2251 23.5529 80.2434 21.4829 81.4385C19.4129 82.6335 17.7271 85.5571 17.7271 87.9472Z" fill="#42E8E0"/>
<path d="M9.87402 105.575C9.87402 107.965 11.5599 108.946 13.6299 107.751C15.6999 106.556 17.3858 103.633 17.3858 101.243C17.3858 98.8525 15.6999 97.8708 13.6299 99.0659C11.5599 100.261 9.87402 103.163 9.87402 105.575Z" fill="#42E8E0"/>
</g>
</svg>
