<svg width="66" height="109" viewBox="0 0 66 109" fill="none" xmlns="http://www.w3.org/2000/svg">
<path d="M11.3958 70.4235C15.7279 84.8068 38.9888 112.763 53.3508 108.431C67.7342 104.098 67.7982 69.1218 63.4661 54.7597C59.134 40.3764 43.9611 32.2244 29.5991 36.5565C15.2158 40.8886 7.06377 56.0402 11.3958 70.4235Z" fill="url(#paint0_radial_283_2221)"/>
<path d="M11.3958 70.4235C15.7279 84.8068 38.9888 112.763 53.3508 108.431C67.7342 104.098 67.7982 69.1218 63.4661 54.7597C59.134 40.3764 43.9611 32.2244 29.5991 36.5565C15.2158 40.8886 7.06377 56.0402 11.3958 70.4235Z" fill="url(#paint1_linear_283_2221)"/>
<path d="M39.0744 36.727C31.52 36.0441 21.8528 40.5255 17.4994 46.7356C13.1459 52.9456 15.7281 58.5154 23.2826 59.1983C30.837 59.8812 40.5042 55.3997 44.8576 49.1897C49.211 42.9797 46.6289 37.3885 39.0744 36.727Z" fill="#9317BC"/>
<path opacity="0.5" d="M39.0744 36.727C31.52 36.0441 21.8528 40.5255 17.4994 46.7356C13.1459 52.9456 15.7281 58.5154 23.2826 59.1983C30.837 59.8812 40.5042 55.3997 44.8576 49.1897C49.211 42.9797 46.6289 37.3885 39.0744 36.727Z" fill="url(#paint2_radial_283_2221)"/>
<path d="M46.9489 43.7693C45.6045 42.6382 43.6838 41.8913 41.187 41.6566C33.6326 40.9737 23.9655 45.4551 19.612 51.6652C18.2676 53.5644 17.5847 55.4211 17.4993 57.0856C14.7678 54.7808 14.5331 50.8969 17.478 46.7356C21.8314 40.5255 31.4985 36.0441 39.053 36.727C44.3027 37.1964 47.141 40.0134 46.9489 43.7693Z" fill="#80CE6C"/>
<path opacity="0.6" d="M13.7221 29.3646C14.8958 29.3433 15.8775 30.2823 15.9201 31.456C15.9415 32.6297 15.0025 33.6114 13.8288 33.654C12.6551 33.6754 11.6734 32.7364 11.6307 31.5627C11.6094 30.3676 12.5484 29.4073 13.7221 29.3646Z" fill="#80CE6C"/>
<path d="M33.9314 14.4266C36.919 14.3625 39.3945 16.7313 39.4585 19.719C39.5225 22.7066 37.1537 25.1821 34.1661 25.2461C31.1784 25.3101 28.703 22.9413 28.639 19.9537C28.5749 16.9874 30.9437 14.5119 33.9314 14.4266Z" fill="#80CE6C"/>
<path opacity="0.6" d="M2.96652 2.26272C4.63106 2.22004 6.01821 3.54314 6.06089 5.22902C6.10357 6.89356 4.78044 8.28067 3.09456 8.32335C1.43001 8.36604 0.0429351 7.04294 0.000254561 5.35706C-0.0210857 3.69252 1.30198 2.3054 2.96652 2.26272Z" fill="#80CE6C"/>
<path d="M15.0877 4.65272C16.2401 4.63138 17.1791 5.52769 17.2005 6.68007C17.2218 7.83244 16.3255 8.7714 15.1731 8.79274C14.0207 8.81408 13.0818 7.91779 13.0604 6.76542C13.0391 5.63438 13.9353 4.6954 15.0877 4.65272Z" fill="#80CE6C"/>
<path d="M12.7831 0.000535712C13.5727 -0.0208046 14.2129 0.598051 14.2342 1.38764C14.2556 2.17723 13.6367 2.81746 12.8471 2.8388C12.0575 2.86014 11.4173 2.24125 11.396 1.45166C11.396 0.683409 12.0149 0.021876 12.7831 0.000535712Z" fill="#80CE6C"/>
<path opacity="0.6" d="M30.2396 39.9063C31.9041 39.8636 33.2699 41.1867 33.3126 42.8299C33.3552 44.4944 32.0322 45.8602 30.389 45.9029C28.7244 45.9456 27.3586 44.6225 27.3159 42.9793C27.2733 41.3147 28.5964 39.9276 30.2396 39.9063Z" fill="#80CE6C"/>
<path d="M21.1482 38.9039C23.6237 38.8398 25.6938 40.8032 25.7364 43.2786C25.8005 45.7541 23.8371 47.8241 21.3616 47.8668C18.8862 47.9308 16.8162 45.9675 16.7735 43.492C16.7095 41.0166 18.6728 38.9679 21.1482 38.9039Z" fill="#80CE6C"/>
<defs>
<radialGradient id="paint0_radial_283_2221" cx="0" cy="0" r="1" gradientUnits="userSpaceOnUse" gradientTransform="translate(20.423 48.983) rotate(163.243) scale(77.2441 77.2441)">
<stop stop-color="#C0BFF6"/>
<stop offset="1" stop-color="#393091"/>
</radialGradient>
<linearGradient id="paint1_linear_283_2221" x1="69.7531" y1="86.5674" x2="11.8085" y2="52.5137" gradientUnits="userSpaceOnUse">
<stop stop-color="#80CE6C"/>
<stop offset="0.0881" stop-color="#31B6BD"/>
<stop offset="0.2288" stop-color="#338DB0"/>
<stop offset="0.3734" stop-color="#356BA5"/>
<stop offset="0.5206" stop-color="#37519C"/>
<stop offset="0.6715" stop-color="#383F96"/>
<stop offset="0.8281" stop-color="#393492"/>
<stop offset="1" stop-color="#393091"/>
</linearGradient>
<radialGradient id="paint2_radial_283_2221" cx="0" cy="0" r="1" gradientUnits="userSpaceOnUse" gradientTransform="translate(34.9499 53.3438) rotate(-84.8938) scale(50.1291 50.1291)">
<stop stop-color="#42E8E0"/>
<stop offset="0.1055" stop-color="#37B6BF"/>
<stop offset="0.2197" stop-color="#2C87A1"/>
<stop offset="0.338" stop-color="#235F87"/>
<stop offset="0.4587" stop-color="#1C3F72"/>
<stop offset="0.5824" stop-color="#162561"/>
<stop offset="0.7105" stop-color="#121355"/>
<stop offset="0.8458" stop-color="#10084E"/>
<stop offset="1" stop-color="#0F054C"/>
</radialGradient>
</defs>
</svg>
