<svg width="75" height="114" viewBox="0 0 75 114" fill="none" xmlns="http://www.w3.org/2000/svg">
<path d="M20.2708 75.2517C24.6029 89.635 47.8638 117.591 62.2258 113.259C76.6092 108.927 76.6732 73.9499 72.3411 59.5879C68.0091 45.2045 52.8361 37.0525 38.4741 41.3846C24.0908 45.6953 15.9388 60.8683 20.2708 75.2517Z" fill="url(#paint0_radial_283_2220)"/>
<path d="M20.2708 75.2517C24.6029 89.635 47.8638 117.591 62.2258 113.259C76.6092 108.927 76.6732 73.9499 72.3411 59.5879C68.0091 45.2045 52.8361 37.0525 38.4741 41.3846C24.0908 45.6953 15.9388 60.8683 20.2708 75.2517Z" fill="url(#paint1_linear_283_2220)"/>
<path d="M47.9494 41.5341C40.3949 40.8512 30.7278 45.3327 26.3744 51.5427C22.0209 57.7527 24.6031 63.3225 32.1576 64.0054C39.712 64.6883 49.3792 60.2068 53.7326 53.9968C58.086 47.7868 55.5038 42.217 47.9494 41.5341Z" fill="#9317BC"/>
<path opacity="0.5" d="M47.9494 41.5341C40.3949 40.8512 30.7278 45.3327 26.3744 51.5427C22.0209 57.7527 24.6031 63.3225 32.1576 64.0054C39.712 64.6883 49.3792 60.2068 53.7326 53.9968C58.086 47.7868 55.5038 42.217 47.9494 41.5341Z" fill="url(#paint2_radial_283_2220)"/>
<path d="M55.8239 48.5764C54.4795 47.4454 52.5589 46.6984 50.062 46.4637C42.5076 45.7808 32.8404 50.2623 28.487 56.4723C27.1426 58.3716 26.4597 60.2282 26.3743 61.8927C23.6428 59.588 23.408 55.704 26.353 51.5427C30.7064 45.3327 40.3736 40.8512 47.928 41.5341C53.1777 42.0036 56.016 44.8419 55.8239 48.5764Z" fill="#80CE6C"/>
<path opacity="0.6" d="M26.5873 24.2704C25.7336 23.4595 25.6909 22.115 26.5019 21.2401C27.3128 20.3865 28.6572 20.3438 29.5322 21.1547C30.3858 21.9656 30.4285 23.3101 29.6176 24.185C28.8066 25.0386 27.4622 25.0813 26.5873 24.2704Z" fill="#80CE6C"/>
<path d="M1.70447 20.7491C-0.472235 18.7004 -0.578937 15.286 1.46973 13.1093C3.5184 10.9326 6.93285 10.8258 9.10955 12.8745C11.2863 14.9232 11.393 18.3376 9.3443 20.5143C7.31697 22.691 3.90252 22.7978 1.70447 20.7491Z" fill="#80CE6C"/>
<path opacity="0.6" d="M15.2555 51.1592C14.0391 50.0068 13.9751 48.1075 15.1275 46.8698C16.2798 45.6534 18.1792 45.5894 19.4169 46.7417C20.6333 47.8941 20.6973 49.7934 19.5449 51.0312C18.3926 52.2476 16.4719 52.2902 15.2555 51.1592Z" fill="#80CE6C"/>
<path d="M8.29879 40.9583C7.46652 40.1687 7.42385 38.8669 8.21344 38.0346C9.00303 37.2024 10.3048 37.1597 11.1371 37.9493C11.9693 38.7389 12.012 40.0406 11.2224 40.8729C10.4542 41.6838 9.13106 41.7265 8.29879 40.9583Z" fill="#80CE6C"/>
<path d="M6.67679 45.8669C6.1006 45.3334 6.07926 44.4371 6.61277 43.8609C7.14628 43.2847 8.04256 43.2633 8.61874 43.7969C9.19493 44.3304 9.21627 45.2267 8.68276 45.8028C8.14926 46.379 7.25298 46.4217 6.67679 45.8669Z" fill="#80CE6C"/>
<path opacity="0.6" d="M22.1911 5.19216C20.9747 4.06113 20.932 2.16186 22.063 0.945469C23.1941 -0.270927 25.0934 -0.313603 26.3097 0.817432C27.5261 1.94847 27.5688 3.84773 26.4378 5.06413C25.3068 6.25918 23.4075 6.3232 22.1911 5.19216Z" fill="#80CE6C"/>
<path d="M27.9957 12.2766C26.1817 10.5694 26.0964 7.73111 27.8036 5.93853C29.5108 4.1246 32.3491 4.03925 34.1416 5.74647C35.9556 7.45369 36.0409 10.292 34.3337 12.0845C32.6478 13.8771 29.7883 13.9838 27.9957 12.2766Z" fill="#80CE6C"/>
<defs>
<radialGradient id="paint0_radial_283_2220" cx="0" cy="0" r="1" gradientUnits="userSpaceOnUse" gradientTransform="translate(29.2959 53.8049) rotate(163.243) scale(77.2444 77.2444)">
<stop stop-color="#C0BFF6"/>
<stop offset="1" stop-color="#393091"/>
</radialGradient>
<linearGradient id="paint1_linear_283_2220" x1="78.6259" y1="91.3893" x2="20.6814" y2="57.3358" gradientUnits="userSpaceOnUse">
<stop stop-color="#80CE6C"/>
<stop offset="0.0881" stop-color="#31B6BD"/>
<stop offset="0.2288" stop-color="#338DB0"/>
<stop offset="0.3734" stop-color="#356BA5"/>
<stop offset="0.5206" stop-color="#37519C"/>
<stop offset="0.6715" stop-color="#383F96"/>
<stop offset="0.8281" stop-color="#393492"/>
<stop offset="1" stop-color="#393091"/>
</linearGradient>
<radialGradient id="paint2_radial_283_2220" cx="0" cy="0" r="1" gradientUnits="userSpaceOnUse" gradientTransform="translate(43.823 58.1662) rotate(-84.8938) scale(50.1289 50.1289)">
<stop stop-color="#42E8E0"/>
<stop offset="0.1055" stop-color="#37B6BF"/>
<stop offset="0.2197" stop-color="#2C87A1"/>
<stop offset="0.338" stop-color="#235F87"/>
<stop offset="0.4587" stop-color="#1C3F72"/>
<stop offset="0.5824" stop-color="#162561"/>
<stop offset="0.7105" stop-color="#121355"/>
<stop offset="0.8458" stop-color="#10084E"/>
<stop offset="1" stop-color="#0F054C"/>
</radialGradient>
</defs>
</svg>
