<svg width="236" height="216" viewBox="0 0 236 216" fill="none" xmlns="http://www.w3.org/2000/svg">
<path d="M214.407 108.218C226.298 101.352 226.302 79.0982 214.416 58.5115C202.53 37.9248 183.255 26.8014 171.364 33.6667C159.473 40.532 159.47 62.7862 171.356 83.3729C183.242 103.96 202.517 115.083 214.407 108.218Z" fill="#BCBEFF"/>
<path d="M126.783 215.708C186.349 215.708 234.637 167.42 234.637 107.854C234.637 48.2878 186.349 0 126.783 0C67.217 0 18.9292 48.2878 18.9292 107.854C18.9292 167.42 67.217 215.708 126.783 215.708Z" fill="url(#paint0_radial_287_2422)"/>
<path d="M126.783 215.708C186.349 215.708 234.637 167.42 234.637 107.854C234.637 48.2878 186.349 0 126.783 0C67.217 0 18.9292 48.2878 18.9292 107.854C18.9292 167.42 67.217 215.708 126.783 215.708Z" fill="url(#paint1_linear_287_2422)"/>
<path d="M216.458 145.938C226.522 121.761 223.364 97.4505 209.404 91.6394C195.444 85.8282 175.969 100.717 165.904 124.894C155.84 149.071 158.998 173.381 172.958 179.192C186.918 185.003 206.394 170.115 216.458 145.938Z" fill="#9317BC"/>
<path opacity="0.5" d="M160.436 158.943C163.189 180.155 179.195 186.813 196.181 173.817C213.168 160.821 224.713 133.1 221.96 111.888C219.208 90.6753 203.202 84.0171 186.216 97.0134C169.207 110.01 157.662 137.731 160.436 158.943Z" fill="url(#paint2_radial_287_2422)"/>
<path d="M174.457 140.569C175.46 148.273 181.286 150.705 187.453 145.968C193.621 141.252 197.825 131.179 196.822 123.454C195.819 115.75 189.993 113.317 183.825 118.055C177.658 122.792 173.454 132.865 174.457 140.569Z" fill="#80CE6C"/>
<path d="M188.03 170.723C205.017 157.726 216.562 130.005 213.809 108.793C212.678 100.15 209.349 93.919 204.654 90.4619C213.531 91.2942 220.253 98.8273 221.961 111.888C224.714 133.1 213.169 160.821 196.182 173.817C186.109 181.521 176.399 182.31 169.57 177.274C175.119 177.786 181.5 175.716 188.03 170.723Z" fill="#80CE6C"/>
<path d="M194.709 173.112C211.696 160.116 223.241 132.395 220.488 111.183C219.208 101.366 215.089 94.6655 209.348 91.5925C215.836 94.2601 220.552 101.238 221.939 111.866C224.692 133.078 213.147 160.799 196.16 173.795C187.048 180.774 178.213 182.054 171.555 178.49C178.021 181.179 186.237 179.6 194.709 173.112Z" fill="#80CE6C"/>
<path d="M35.7666 147.312L74.8193 169.847V124.755L35.7666 102.198V147.312Z" fill="#9317BC"/>
<path opacity="0.8" d="M41.5712 105.549V144.153L74.8193 163.36V169.847L35.7666 147.312V102.198L41.5712 105.549Z" fill="url(#paint3_radial_287_2422)"/>
<path d="M67.3716 137.068L70.8714 139.096V135.062L67.3716 133.035V137.068Z" fill="#80CE6C"/>
<path d="M59.9448 127.615L63.4446 129.621V125.588L59.9448 123.56V127.615Z" fill="#80CE6C"/>
<path d="M52.5186 128.49L56.0184 130.517V126.484L52.5186 124.456V128.49Z" fill="#80CE6C"/>
<path d="M52.5186 139.096L56.0184 141.123V137.068L52.5186 135.062V139.096Z" fill="#80CE6C"/>
<path d="M56.9785 147.248L60.4783 149.254V145.22L56.9785 143.193V147.248Z" fill="#80CE6C"/>
<path d="M44.8574 134.679L48.3572 136.685V132.651L44.8574 130.624V134.679Z" fill="#80CE6C"/>
<path d="M4.26806 135.405L0 128L4.26806 125.545L43.3421 148.102V193.194L39.0527 195.67L34.7846 188.264L4.26806 170.637V135.405Z" fill="url(#paint4_linear_287_2422)"/>
<path d="M0 173.113L39.0527 195.669V150.556L0 127.999V173.113Z" fill="url(#paint5_linear_287_2422)"/>
<path d="M0 173.113L39.0527 195.669V150.556L0 127.999V173.113Z" fill="url(#paint6_linear_287_2422)"/>
<defs>
<radialGradient id="paint0_radial_287_2422" cx="0" cy="0" r="1" gradientUnits="userSpaceOnUse" gradientTransform="translate(59.4779 91.8748) rotate(180) scale(182.277)">
<stop stop-color="#C0BFF6"/>
<stop offset="1" stop-color="#393091"/>
</radialGradient>
<linearGradient id="paint1_linear_287_2422" x1="141.792" y1="214.659" x2="111.77" y2="1.04374" gradientUnits="userSpaceOnUse">
<stop stop-color="#80CE6C"/>
<stop offset="0.0881" stop-color="#31B6BD"/>
<stop offset="0.2288" stop-color="#338DB0"/>
<stop offset="0.3734" stop-color="#356BA5"/>
<stop offset="0.5206" stop-color="#37519C"/>
<stop offset="0.6715" stop-color="#383F96"/>
<stop offset="0.8281" stop-color="#393492"/>
<stop offset="1" stop-color="#393091"/>
</linearGradient>
<radialGradient id="paint2_radial_287_2422" cx="0" cy="0" r="1" gradientUnits="userSpaceOnUse" gradientTransform="translate(160.362 117.796) rotate(180) scale(89.5302 89.5302)">
<stop stop-color="#80CE6C"/>
<stop offset="0.0591" stop-color="#3CCBCD"/>
<stop offset="0.1783" stop-color="#3098AC"/>
<stop offset="0.2996" stop-color="#266B8F"/>
<stop offset="0.4207" stop-color="#1E4777"/>
<stop offset="0.5414" stop-color="#172A65"/>
<stop offset="0.6619" stop-color="#131657"/>
<stop offset="0.7821" stop-color="#100A50"/>
<stop offset="0.9017" stop-color="#0F064D"/>
<stop offset="1" stop-color="#0F054C"/>
</radialGradient>
<radialGradient id="paint3_radial_287_2422" cx="0" cy="0" r="1" gradientUnits="userSpaceOnUse" gradientTransform="translate(62.583 58.9759) rotate(180) scale(71.9251 92.4021)">
<stop stop-color="#2B237C"/>
<stop offset="0.31" stop-color="#251C72"/>
<stop offset="1" stop-color="#0F054C"/>
</radialGradient>
<linearGradient id="paint4_linear_287_2422" x1="6.01903" y1="155.841" x2="108.286" y2="186.94" gradientUnits="userSpaceOnUse">
<stop stop-color="#BCBEFF"/>
<stop offset="0.151" stop-color="#A3A7F5"/>
<stop offset="0.3866" stop-color="#8289E8"/>
<stop offset="0.6124" stop-color="#6A73DF"/>
<stop offset="0.8221" stop-color="#5C66D9"/>
<stop offset="1" stop-color="#5761D7"/>
</linearGradient>
<linearGradient id="paint5_linear_287_2422" x1="23.7208" y1="162.33" x2="163.856" y2="179.025" gradientUnits="userSpaceOnUse">
<stop stop-color="#BCBEFF"/>
<stop offset="0.151" stop-color="#A3A7F5"/>
<stop offset="0.3866" stop-color="#8289E8"/>
<stop offset="0.6124" stop-color="#6A73DF"/>
<stop offset="0.8221" stop-color="#5C66D9"/>
<stop offset="1" stop-color="#5761D7"/>
</linearGradient>
<linearGradient id="paint6_linear_287_2422" x1="44.7397" y1="203.527" x2="-28.2772" y2="82.7575" gradientUnits="userSpaceOnUse">
<stop stop-color="#80CE6C"/>
<stop offset="0.1188" stop-color="#42E2DE"/>
<stop offset="0.2699" stop-color="#41D3D7"/>
<stop offset="0.4386" stop-color="#40B9CC"/>
<stop offset="0.6201" stop-color="#3E94BC"/>
<stop offset="0.8101" stop-color="#3C66A8"/>
<stop offset="1" stop-color="#393091"/>
</linearGradient>
</defs>
</svg>
