<svg width="218" height="216" viewBox="0 0 218 216" fill="none" xmlns="http://www.w3.org/2000/svg">
<path d="M195.539 108.218C207.429 101.352 207.433 79.0982 195.547 58.5115C183.661 37.9248 164.386 26.8014 152.495 33.6667C140.605 40.532 140.601 62.7862 152.487 83.3729C164.373 103.96 183.648 115.083 195.539 108.218Z" fill="#BCBEFF"/>
<path d="M107.914 215.708C167.48 215.708 215.768 167.42 215.768 107.854C215.768 48.2878 167.48 0 107.914 0C48.3483 0 0.0605469 48.2878 0.0605469 107.854C0.0605469 167.42 48.3483 215.708 107.914 215.708Z" fill="url(#paint0_radial_283_2281)"/>
<path d="M107.914 215.708C167.48 215.708 215.768 167.42 215.768 107.854C215.768 48.2878 167.48 0 107.914 0C48.3483 0 0.0605469 48.2878 0.0605469 107.854C0.0605469 167.42 48.3483 215.708 107.914 215.708Z" fill="url(#paint1_linear_283_2281)"/>
<path d="M197.589 145.938C207.654 121.761 204.495 97.4505 190.535 91.6394C176.575 85.8282 157.1 100.717 147.036 124.894C136.972 149.071 140.13 173.381 154.09 179.192C168.05 185.003 187.525 170.115 197.589 145.938Z" fill="#9317BC"/>
<path opacity="0.5" d="M141.568 158.943C144.321 180.155 160.326 186.813 177.313 173.817C194.3 160.821 205.845 133.1 203.092 111.888C200.339 90.6753 184.334 84.0171 167.347 97.0134C150.339 110.01 138.794 137.731 141.568 158.943Z" fill="url(#paint2_radial_283_2281)"/>
<path d="M155.588 140.569C156.591 148.273 162.417 150.705 168.585 145.968C174.752 141.252 178.956 131.179 177.953 123.454C176.95 115.75 171.124 113.317 164.957 118.055C158.789 122.792 154.585 132.865 155.588 140.569Z" fill="#80CE6C"/>
<path d="M169.161 170.723C186.148 157.726 197.693 130.005 194.94 108.793C193.809 100.15 190.48 93.919 185.785 90.4619C194.663 91.2942 201.385 98.8273 203.092 111.888C205.845 133.1 194.3 160.821 177.313 173.817C167.24 181.521 157.531 182.31 150.702 177.274C156.25 177.786 162.631 175.716 169.161 170.723Z" fill="#80CE6C"/>
<path d="M175.84 173.112C192.827 160.116 204.372 132.395 201.619 111.183C200.339 101.366 196.22 94.6655 190.48 91.5925C196.967 94.2601 201.683 101.238 203.07 111.866C205.823 133.078 194.278 160.799 177.291 173.795C168.179 180.774 159.344 182.054 152.686 178.49C159.152 181.179 167.368 179.6 175.84 173.112Z" fill="#80CE6C"/>
<defs>
<radialGradient id="paint0_radial_283_2281" cx="0" cy="0" r="1" gradientUnits="userSpaceOnUse" gradientTransform="translate(40.6092 91.8748) rotate(180) scale(182.277)">
<stop stop-color="#C0BFF6"/>
<stop offset="1" stop-color="#393091"/>
</radialGradient>
<linearGradient id="paint1_linear_283_2281" x1="122.923" y1="214.659" x2="92.901" y2="1.04374" gradientUnits="userSpaceOnUse">
<stop stop-color="#80CE6C"/>
<stop offset="0.0881" stop-color="#31B6BD"/>
<stop offset="0.2288" stop-color="#338DB0"/>
<stop offset="0.3734" stop-color="#356BA5"/>
<stop offset="0.5206" stop-color="#37519C"/>
<stop offset="0.6715" stop-color="#383F96"/>
<stop offset="0.8281" stop-color="#393492"/>
<stop offset="1" stop-color="#393091"/>
</linearGradient>
<radialGradient id="paint2_radial_283_2281" cx="0" cy="0" r="1" gradientUnits="userSpaceOnUse" gradientTransform="translate(141.494 117.796) rotate(180) scale(89.5302 89.5302)">
<stop stop-color="#80CE6C"/>
<stop offset="0.0591" stop-color="#3CCBCD"/>
<stop offset="0.1783" stop-color="#3098AC"/>
<stop offset="0.2996" stop-color="#266B8F"/>
<stop offset="0.4207" stop-color="#1E4777"/>
<stop offset="0.5414" stop-color="#172A65"/>
<stop offset="0.6619" stop-color="#131657"/>
<stop offset="0.7821" stop-color="#100A50"/>
<stop offset="0.9017" stop-color="#0F064D"/>
<stop offset="1" stop-color="#0F054C"/>
</radialGradient>
</defs>
</svg>
