<svg width="303" height="412" viewBox="0 0 303 412" fill="none" xmlns="http://www.w3.org/2000/svg">
<path d="M261.604 234.466C284.221 234.466 302.556 216.131 302.556 193.514C302.556 170.897 284.221 152.562 261.604 152.562C238.987 152.562 220.652 170.897 220.652 193.514C220.652 216.131 238.987 234.466 261.604 234.466Z" fill="url(#paint0_radial_287_2391)"/>
<path d="M261.604 234.466C284.221 234.466 302.556 216.131 302.556 193.514C302.556 170.897 284.221 152.562 261.604 152.562C238.987 152.562 220.652 170.897 220.652 193.514C220.652 216.131 238.987 234.466 261.604 234.466Z" fill="url(#paint1_linear_287_2391)"/>
<path d="M57.356 267.885C57.356 347.378 104.689 411.825 163.097 411.825C221.505 411.825 268.838 347.378 268.838 267.885C268.838 188.393 221.505 164.555 163.097 164.555C104.689 164.555 57.356 188.371 57.356 267.885Z" fill="url(#paint2_radial_287_2391)"/>
<path d="M57.356 267.885C57.356 347.378 104.689 411.825 163.097 411.825C221.505 411.825 268.838 347.378 268.838 267.885C268.838 188.393 221.505 164.555 163.097 164.555C104.689 164.555 57.356 188.371 57.356 267.885Z" fill="url(#paint3_linear_287_2391)"/>
<path d="M163.097 248.956C202.957 248.956 235.27 230.305 235.27 207.299C235.27 184.293 202.957 165.643 163.097 165.643C123.237 165.643 90.9243 184.293 90.9243 207.299C90.9243 230.305 123.237 248.956 163.097 248.956Z" fill="#9317BC"/>
<path opacity="0.5" d="M163.097 248.956C202.957 248.956 235.27 230.305 235.27 207.299C235.27 184.293 202.957 165.643 163.097 165.643C123.237 165.643 90.9243 184.293 90.9243 207.299C90.9243 230.305 123.237 248.956 163.097 248.956Z" fill="url(#paint4_radial_287_2391)"/>
<path d="M214.143 188.925C185.952 172.664 140.263 172.664 112.094 188.925C100.463 195.648 93.6342 204.098 91.6069 212.848C88.726 200.428 95.5548 187.389 112.094 177.829C140.284 161.567 185.974 161.567 214.143 177.829C230.682 187.368 237.51 200.407 234.629 212.848C232.602 204.098 225.773 195.648 214.143 188.925Z" fill="#80CE6C"/>
<path d="M246.539 108.218C258.429 101.353 258.433 79.0985 246.547 58.5118C234.661 37.9251 215.386 26.8016 203.495 33.6669C191.605 40.5322 191.601 62.7865 203.487 83.3732C215.373 103.96 234.648 115.083 246.539 108.218Z" fill="#BCBEFF"/>
<path d="M158.914 215.708C218.48 215.708 266.768 167.42 266.768 107.854C266.768 48.2878 218.48 0 158.914 0C99.3483 0 51.0605 48.2878 51.0605 107.854C51.0605 167.42 99.3483 215.708 158.914 215.708Z" fill="url(#paint5_radial_287_2391)"/>
<path d="M158.914 215.708C218.48 215.708 266.768 167.42 266.768 107.854C266.768 48.2878 218.48 0 158.914 0C99.3483 0 51.0605 48.2878 51.0605 107.854C51.0605 167.42 99.3483 215.708 158.914 215.708Z" fill="url(#paint6_linear_287_2391)"/>
<path d="M248.589 145.938C258.654 121.761 255.495 97.4505 241.535 91.6394C227.575 85.8282 208.1 100.717 198.036 124.894C187.972 149.071 191.13 173.381 205.09 179.192C219.05 185.003 238.525 170.115 248.589 145.938Z" fill="#9317BC"/>
<path opacity="0.5" d="M192.568 158.943C195.321 180.155 211.326 186.813 228.313 173.817C245.3 160.821 256.845 133.1 254.092 111.888C251.339 90.6753 235.334 84.0171 218.347 97.0134C201.339 110.01 189.794 137.731 192.568 158.943Z" fill="url(#paint7_radial_287_2391)"/>
<path d="M206.588 140.569C207.591 148.273 213.417 150.705 219.585 145.968C225.752 141.252 229.956 131.179 228.953 123.454C227.95 115.75 222.124 113.317 215.957 118.055C209.789 122.792 205.585 132.865 206.588 140.569Z" fill="#80CE6C"/>
<path d="M220.161 170.723C237.148 157.726 248.693 130.005 245.94 108.793C244.809 100.15 241.48 93.919 236.785 90.4619C245.663 91.2942 252.385 98.8273 254.092 111.888C256.845 133.1 245.3 160.821 228.313 173.817C218.24 181.521 208.531 182.31 201.702 177.274C207.25 177.786 213.631 175.716 220.161 170.723Z" fill="#80CE6C"/>
<path d="M226.84 173.112C243.827 160.116 255.372 132.395 252.619 111.183C251.339 101.366 247.22 94.6655 241.48 91.5925C247.967 94.2601 252.683 101.238 254.07 111.866C256.823 133.078 245.278 160.799 228.291 173.795C219.179 180.774 210.344 182.054 203.686 178.49C210.152 181.179 218.368 179.6 226.84 173.112Z" fill="#80CE6C"/>
<path d="M46.8778 336.195C69.4949 336.195 87.8298 317.86 87.8298 295.243C87.8298 272.626 69.4949 254.291 46.8778 254.291C24.2606 254.291 5.92578 272.626 5.92578 295.243C5.92578 317.86 24.2606 336.195 46.8778 336.195Z" fill="url(#paint8_radial_287_2391)"/>
<path d="M46.8778 336.195C69.4949 336.195 87.8298 317.86 87.8298 295.243C87.8298 272.626 69.4949 254.291 46.8778 254.291C24.2606 254.291 5.92578 272.626 5.92578 295.243C5.92578 317.86 24.2606 336.195 46.8778 336.195Z" fill="url(#paint9_linear_287_2391)"/>
<path d="M38.4154 328.67C45.4886 324.586 45.4899 311.347 38.4184 299.099C31.3468 286.851 19.8803 280.232 12.8071 284.316C5.73394 288.4 5.73262 301.64 12.8042 313.888C19.8757 326.135 31.3423 332.754 38.4154 328.67Z" fill="#9317BC"/>
<path opacity="0.5" d="M7.52588 296.033C7.52588 307.578 15.6352 321.62 25.6224 327.381C35.631 333.165 43.719 328.47 43.719 316.925C43.719 305.38 35.6097 291.338 25.6224 285.576C15.6352 279.814 7.52588 284.487 7.52588 296.033Z" fill="url(#paint10_radial_287_2391)"/>
<path d="M17.129 283.122C15.5925 285.298 14.7176 288.329 14.7176 292.127C14.7176 303.672 22.8269 317.714 32.8141 323.476C35.8871 325.247 38.768 326.037 41.3075 325.93C38.1918 330.39 32.3233 331.265 25.6224 327.381C15.6139 321.598 7.52588 307.578 7.52588 296.032C7.52588 288.03 11.4098 283.335 17.129 283.122Z" fill="#80CE6C"/>
<path d="M67.8979 147.312L106.951 169.847V124.755L67.8979 102.198V147.312Z" fill="#9317BC"/>
<path opacity="0.8" d="M73.7025 105.549V144.153L106.951 163.36V169.847L67.8979 147.312V102.198L73.7025 105.549Z" fill="url(#paint11_radial_287_2391)"/>
<path d="M99.5029 137.068L103.003 139.096V135.062L99.5029 133.035V137.068Z" fill="#80CE6C"/>
<path d="M92.0762 127.615L95.576 129.621V125.588L92.0762 123.56V127.615Z" fill="#80CE6C"/>
<path d="M84.6499 128.49L88.1497 130.517V126.484L84.6499 124.456V128.49Z" fill="#80CE6C"/>
<path d="M84.6499 139.096L88.1497 141.123V137.068L84.6499 135.062V139.096Z" fill="#80CE6C"/>
<path d="M89.1099 147.248L92.6097 149.254V145.22L89.1099 143.193V147.248Z" fill="#80CE6C"/>
<path d="M76.9888 134.679L80.4886 136.685V132.651L76.9888 130.624V134.679Z" fill="#80CE6C"/>
<path d="M36.3994 135.405L32.1313 128L36.3994 125.545L75.4735 148.102V193.194L71.184 195.67L66.916 188.264L36.3994 170.637V135.405Z" fill="url(#paint12_linear_287_2391)"/>
<path d="M32.1313 173.113L71.184 195.669V150.556L32.1313 127.999V173.113Z" fill="url(#paint13_linear_287_2391)"/>
<path d="M32.1313 173.113L71.184 195.669V150.556L32.1313 127.999V173.113Z" fill="url(#paint14_linear_287_2391)"/>
<defs>
<radialGradient id="paint0_radial_287_2391" cx="0" cy="0" r="1" gradientUnits="userSpaceOnUse" gradientTransform="translate(65.7181 62.6677) rotate(168.802) scale(236.407)">
<stop stop-color="#C0BFF6"/>
<stop offset="1" stop-color="#393091"/>
</radialGradient>
<linearGradient id="paint1_linear_287_2391" x1="283.603" y1="228.053" x2="239.6" y2="158.969" gradientUnits="userSpaceOnUse">
<stop stop-color="#706EC4"/>
<stop offset="0.0222" stop-color="#6D6BC2"/>
<stop offset="0.2509" stop-color="#5651AC"/>
<stop offset="0.4865" stop-color="#463F9D"/>
<stop offset="0.7314" stop-color="#3C3494"/>
<stop offset="1" stop-color="#393091"/>
</linearGradient>
<radialGradient id="paint2_radial_287_2391" cx="0" cy="0" r="1" gradientUnits="userSpaceOnUse" gradientTransform="translate(100.717 246.309) rotate(180) scale(181.72 247.369)">
<stop stop-color="#C0BFF6"/>
<stop offset="1" stop-color="#393091"/>
</radialGradient>
<linearGradient id="paint3_linear_287_2391" x1="163.106" y1="411.825" x2="163.106" y2="164.558" gradientUnits="userSpaceOnUse">
<stop stop-color="#80CE6C"/>
<stop offset="0.0881" stop-color="#31B6BD"/>
<stop offset="0.2288" stop-color="#338DB0"/>
<stop offset="0.3734" stop-color="#356BA5"/>
<stop offset="0.5206" stop-color="#37519C"/>
<stop offset="0.6715" stop-color="#383F96"/>
<stop offset="0.8281" stop-color="#393492"/>
<stop offset="1" stop-color="#393091"/>
</linearGradient>
<radialGradient id="paint4_radial_287_2391" cx="0" cy="0" r="1" gradientUnits="userSpaceOnUse" gradientTransform="translate(165.909 247.333) rotate(180) scale(140.655 140.655)">
<stop stop-color="#42E8E0"/>
<stop offset="0.1055" stop-color="#37B6BF"/>
<stop offset="0.2197" stop-color="#2C87A1"/>
<stop offset="0.338" stop-color="#235F87"/>
<stop offset="0.4587" stop-color="#1C3F72"/>
<stop offset="0.5824" stop-color="#162561"/>
<stop offset="0.7105" stop-color="#121355"/>
<stop offset="0.8458" stop-color="#10084E"/>
<stop offset="1" stop-color="#0F054C"/>
</radialGradient>
<radialGradient id="paint5_radial_287_2391" cx="0" cy="0" r="1" gradientUnits="userSpaceOnUse" gradientTransform="translate(91.6092 91.8748) rotate(180) scale(182.277)">
<stop stop-color="#C0BFF6"/>
<stop offset="1" stop-color="#393091"/>
</radialGradient>
<linearGradient id="paint6_linear_287_2391" x1="173.923" y1="214.659" x2="143.901" y2="1.04374" gradientUnits="userSpaceOnUse">
<stop stop-color="#80CE6C"/>
<stop offset="0.0881" stop-color="#31B6BD"/>
<stop offset="0.2288" stop-color="#338DB0"/>
<stop offset="0.3734" stop-color="#356BA5"/>
<stop offset="0.5206" stop-color="#37519C"/>
<stop offset="0.6715" stop-color="#383F96"/>
<stop offset="0.8281" stop-color="#393492"/>
<stop offset="1" stop-color="#393091"/>
</linearGradient>
<radialGradient id="paint7_radial_287_2391" cx="0" cy="0" r="1" gradientUnits="userSpaceOnUse" gradientTransform="translate(192.494 117.796) rotate(180) scale(89.5302 89.5302)">
<stop stop-color="#80CE6C"/>
<stop offset="0.0591" stop-color="#3CCBCD"/>
<stop offset="0.1783" stop-color="#3098AC"/>
<stop offset="0.2996" stop-color="#266B8F"/>
<stop offset="0.4207" stop-color="#1E4777"/>
<stop offset="0.5414" stop-color="#172A65"/>
<stop offset="0.6619" stop-color="#131657"/>
<stop offset="0.7821" stop-color="#100A50"/>
<stop offset="0.9017" stop-color="#0F064D"/>
<stop offset="1" stop-color="#0F054C"/>
</radialGradient>
<radialGradient id="paint8_radial_287_2391" cx="0" cy="0" r="1" gradientUnits="userSpaceOnUse" gradientTransform="translate(22.6162 268.508) rotate(168.802) scale(85.4428 85.4428)">
<stop stop-color="#C0BFF6"/>
<stop offset="1" stop-color="#393091"/>
</radialGradient>
<linearGradient id="paint9_linear_287_2391" x1="80.0144" y1="319.309" x2="13.7505" y2="271.163" gradientUnits="userSpaceOnUse">
<stop stop-color="#2FD3C7"/>
<stop offset="0.0881" stop-color="#31B6BD"/>
<stop offset="0.2288" stop-color="#338DB0"/>
<stop offset="0.3734" stop-color="#356BA5"/>
<stop offset="0.5206" stop-color="#37519C"/>
<stop offset="0.6715" stop-color="#383F96"/>
<stop offset="0.8281" stop-color="#393492"/>
<stop offset="1" stop-color="#393091"/>
</linearGradient>
<radialGradient id="paint10_radial_287_2391" cx="0" cy="0" r="1" gradientUnits="userSpaceOnUse" gradientTransform="translate(33.2838 300.027) rotate(180) scale(76.3066 76.3066)">
<stop stop-color="#42E8E0"/>
<stop offset="0.1055" stop-color="#37B6BF"/>
<stop offset="0.2197" stop-color="#2C87A1"/>
<stop offset="0.338" stop-color="#235F87"/>
<stop offset="0.4587" stop-color="#1C3F72"/>
<stop offset="0.5824" stop-color="#162561"/>
<stop offset="0.7105" stop-color="#121355"/>
<stop offset="0.8458" stop-color="#10084E"/>
<stop offset="1" stop-color="#0F054C"/>
</radialGradient>
<radialGradient id="paint11_radial_287_2391" cx="0" cy="0" r="1" gradientUnits="userSpaceOnUse" gradientTransform="translate(94.7144 58.9759) rotate(180) scale(71.9251 92.4021)">
<stop stop-color="#2B237C"/>
<stop offset="0.31" stop-color="#251C72"/>
<stop offset="1" stop-color="#0F054C"/>
</radialGradient>
<linearGradient id="paint12_linear_287_2391" x1="38.1504" y1="155.841" x2="140.418" y2="186.94" gradientUnits="userSpaceOnUse">
<stop stop-color="#BCBEFF"/>
<stop offset="0.151" stop-color="#A3A7F5"/>
<stop offset="0.3866" stop-color="#8289E8"/>
<stop offset="0.6124" stop-color="#6A73DF"/>
<stop offset="0.8221" stop-color="#5C66D9"/>
<stop offset="1" stop-color="#5761D7"/>
</linearGradient>
<linearGradient id="paint13_linear_287_2391" x1="55.8521" y1="162.33" x2="195.987" y2="179.025" gradientUnits="userSpaceOnUse">
<stop stop-color="#BCBEFF"/>
<stop offset="0.151" stop-color="#A3A7F5"/>
<stop offset="0.3866" stop-color="#8289E8"/>
<stop offset="0.6124" stop-color="#6A73DF"/>
<stop offset="0.8221" stop-color="#5C66D9"/>
<stop offset="1" stop-color="#5761D7"/>
</linearGradient>
<linearGradient id="paint14_linear_287_2391" x1="76.871" y1="203.527" x2="3.85413" y2="82.7575" gradientUnits="userSpaceOnUse">
<stop stop-color="#80CE6C"/>
<stop offset="0.1188" stop-color="#42E2DE"/>
<stop offset="0.2699" stop-color="#41D3D7"/>
<stop offset="0.4386" stop-color="#40B9CC"/>
<stop offset="0.6201" stop-color="#3E94BC"/>
<stop offset="0.8101" stop-color="#3C66A8"/>
<stop offset="1" stop-color="#393091"/>
</linearGradient>
</defs>
</svg>
